<svg width="46" height="43" viewBox="0 0 46 43" fill="none" xmlns="http://www.w3.org/2000/svg">
<path d="M31.6533 35.6563L2.42233 15.9911C-0.539878 13.9983 0.467078 9.84916 4.16087 8.87348L35.2281 0.649847C35.8863 0.418249 36.5915 0.34307 37.2853 0.43055C37.9792 0.51803 38.6417 0.765644 39.2177 1.15285C39.7938 1.54005 40.2669 2.05566 40.5978 2.6569C40.9286 3.25814 41.1076 3.92766 41.1199 4.6099L39.2787 32.4971C39.0604 35.8072 34.6155 37.649 31.6533 35.6563Z" fill="#E9327C"/>
<path d="M22.3821 40.511L5.16124 7.66573C4.76759 6.91434 4.59436 6.07151 4.66067 5.23018C4.72697 4.38887 5.03022 3.58174 5.53698 2.89783C6.04375 2.21392 6.73432 1.6798 7.53253 1.35435C8.3308 1.0289 9.20568 0.924786 10.0608 1.05347L41.9753 5.85734C42.7101 5.96795 43.4075 6.24708 44.01 6.67177C44.6127 7.09647 45.1033 7.65456 45.4416 8.30026C45.7799 8.94595 45.9563 9.66072 45.9562 10.3858C45.9561 11.1109 45.7795 11.8256 45.441 12.4712L30.7392 40.5126C30.3444 41.2618 29.7454 41.8904 29.0082 42.3293C28.2709 42.7681 27.4238 43.0001 26.5601 43C25.6964 42.9999 24.8494 42.7675 24.1124 42.3283C23.3753 41.8892 22.7765 41.2604 22.3821 40.511Z" fill="#1DACE3"/>
<path d="M41.0418 5.71592L25.1325 3.32114L5.59961 8.4937L13.3961 23.3693L31.6533 35.6563C32.0561 35.9243 32.4991 36.1296 32.9666 36.2649L39.9012 23.0388L41.0418 5.71592Z" fill="#001A49"/>
</svg>
